<?xml version="1.0" standalone="no"?>
<!DOCTYPE svg PUBLIC "-//W3C//DTD SVG 20010904//EN"
 "http://www.w3.org/TR/2001/REC-SVG-20010904/DTD/svg10.dtd">
<svg version="1.0" xmlns="http://www.w3.org/2000/svg"
 width="838.000000pt" height="838.000000pt" viewBox="0 0 838.000000 838.000000"
 preserveAspectRatio="xMidYMid meet">
<metadata>
Created by potrace 1.14, written by Peter Selinger 2001-2017
</metadata>
<g transform="translate(0.000000,838.000000) scale(0.100000,-0.100000)"
fill="#000000" stroke="none">
<path d="M968 7234 c-2 -1 -34 -4 -71 -8 -69 -6 -159 -38 -187 -66 -46 -46
-84 -126 -95 -201 -4 -24 -8 -92 -10 -151 -2 -59 -5 -111 -8 -115 -3 -5 -8
-33 -11 -63 -3 -30 -8 -64 -10 -75 -2 -11 -7 -42 -10 -70 -4 -27 -9 -61 -11
-75 -2 -14 -6 -52 -10 -85 -4 -32 -9 -68 -11 -80 -3 -11 -7 -40 -9 -65 -4 -46
-12 -110 -20 -145 -2 -11 -7 -45 -10 -75 -3 -30 -8 -66 -10 -80 -2 -14 -7 -50
-10 -80 -4 -30 -9 -63 -11 -74 -2 -10 -6 -44 -10 -75 -3 -31 -8 -58 -9 -61 -2
-3 -6 -37 -10 -75 -3 -39 -8 -77 -10 -85 -2 -8 -7 -39 -10 -69 -4 -30 -8 -63
-10 -73 -4 -17 -13 -97 -21 -168 -1 -14 -3 -25 -4 -25 -2 0 -5 -25 -14 -104
-4 -35 -8 -67 -10 -70 -3 -4 -7 -36 -10 -71 -3 -36 -8 -76 -11 -90 -7 -37 -17
-101 -21 -145 -3 -22 -6 -53 -8 -70 -4 -38 -26 -192 -32 -227 -2 -15 -6 -56
-9 -90 -2 -35 -7 -81 -11 -103 -5 -39 -10 -68 -18 -122 -8 -48 -16 -126 -21
-183 -3 -30 -7 -82 -10 -115 -3 -33 -8 -87 -11 -120 -3 -33 -6 -73 -8 -90 -2
-16 -7 -59 -10 -95 -4 -36 -9 -76 -11 -90 -2 -14 -7 -52 -10 -85 -3 -33 -7
-76 -10 -95 -3 -19 -7 -55 -10 -80 -13 -110 -22 -182 -30 -235 -3 -16 -7 -52
-10 -80 -3 -27 -8 -61 -10 -75 -2 -14 -7 -47 -10 -75 -3 -27 -7 -66 -10 -85
-7 -53 -18 -161 -21 -200 -1 -19 -3 -35 -3 -35 -1 0 -4 -29 -6 -65 -22 -343
-26 -736 -9 -832 34 -181 128 -258 298 -245 111 9 138 20 198 79 89 87 87 83
83 231 -9 256 -4 561 10 667 2 19 7 55 10 80 10 85 16 135 19 155 7 45 18 111
21 125 2 8 4 23 4 32 1 12 51 43 169 101 191 95 306 157 310 169 2 4 8 8 14 8
6 0 66 34 132 75 67 42 130 81 141 88 11 7 22 14 25 17 3 3 28 20 55 38 28 17
55 35 60 39 6 5 35 25 65 45 30 21 73 50 95 66 22 15 63 44 91 63 28 20 57 41
65 47 8 7 52 40 98 74 64 47 92 62 120 63 34 1 37 -2 62 -55 95 -200 124 -263
154 -325 18 -38 50 -106 70 -150 21 -44 52 -111 70 -150 124 -262 145 -309
145 -321 0 -7 3 -14 8 -16 7 -3 82 -153 82 -165 0 -13 51 -72 80 -93 16 -12
40 -23 52 -26 63 -14 135 -20 215 -19 182 4 276 88 287 256 4 57 1 69 -32 133
-21 39 -41 74 -45 77 -5 3 -9 10 -9 15 -1 16 -33 88 -121 274 -12 25 -22 47
-23 50 0 3 -16 37 -33 75 -33 69 -51 110 -92 203 -11 26 -65 136 -120 245 -54
108 -96 197 -92 197 3 0 1 6 -5 13 -10 12 -23 63 -27 102 -1 11 5 33 14 48 15
27 77 60 722 384 84 42 115 63 145 100 21 27 47 54 58 62 92 68 195 181 228
251 27 55 35 149 17 193 -47 119 -141 151 -249 86 -8 -5 -30 -16 -47 -24 -18
-9 -126 -59 -240 -111 -115 -53 -233 -108 -263 -122 -30 -13 -111 -51 -179
-83 -67 -33 -125 -59 -127 -59 -2 0 -63 -29 -136 -65 -73 -36 -137 -65 -141
-65 -21 0 -38 40 -101 235 -37 116 -71 219 -76 230 -7 16 -71 206 -75 225 -1
3 -4 12 -8 20 -12 31 -69 195 -71 205 -1 6 -4 15 -7 20 -3 6 -11 30 -18 55 -7
25 -17 54 -22 65 -5 11 -33 90 -63 175 -105 299 -190 530 -222 605 -10 22 -19
45 -20 50 -1 6 -17 48 -34 95 -18 47 -35 96 -39 110 -5 14 -25 58 -45 98 -21
41 -52 111 -70 155 -48 118 -74 172 -125 257 -47 79 -175 215 -226 240 -17 8
-32 17 -35 21 -6 6 -100 50 -115 54 -48 10 -192 24 -197 19z m166 -1056 c8
-13 26 -57 39 -98 14 -41 49 -140 77 -220 78 -221 121 -344 124 -355 2 -5 6
-17 9 -25 7 -16 113 -316 127 -360 29 -87 121 -343 130 -360 6 -11 8 -20 6
-20 -3 0 -1 -12 5 -27 24 -61 101 -279 104 -296 2 -9 6 -21 9 -26 18 -28 129
-363 132 -398 4 -38 1 -43 -36 -73 -22 -17 -59 -42 -82 -54 -90 -49 -125 -70
-301 -189 -100 -67 -184 -124 -187 -127 -14 -14 -70 -50 -79 -50 -5 0 -11 -4
-13 -8 -10 -28 -399 -242 -437 -242 -9 0 -12 34 -10 138 1 75 4 141 6 145 3 5
7 34 9 65 2 31 6 75 8 97 13 104 21 181 30 285 3 36 8 79 11 95 2 17 7 62 10
100 3 39 8 84 10 100 2 17 6 55 10 85 3 30 7 71 10 90 2 19 7 67 11 105 3 39
8 73 10 77 3 4 7 36 9 70 3 35 7 73 9 85 3 12 8 54 11 94 4 40 9 82 11 93 2
12 6 46 9 76 3 30 8 71 11 90 3 19 7 60 9 90 4 48 11 100 20 151 2 8 6 40 9
70 3 30 8 65 11 79 2 14 6 45 9 70 10 78 16 124 21 160 6 35 10 68 20 138 3
20 7 44 10 52 2 8 6 32 10 53 7 49 36 179 42 190 8 13 22 7 37 -15z"/>
<path d="M7045 5813 c-33 -7 -71 -16 -84 -19 -13 -2 -67 -19 -120 -36 -53 -18
-98 -32 -101 -33 -3 -1 -18 -7 -35 -14 -82 -35 -260 -89 -320 -97 -16 -2 -41
-6 -54 -9 -13 -3 -46 -8 -75 -10 -28 -3 -105 -21 -171 -41 -66 -19 -129 -37
-140 -40 -28 -5 -221 -62 -275 -81 -25 -8 -49 -16 -55 -17 -12 -3 -40 -14 -73
-27 -13 -5 -32 -9 -42 -9 -11 0 -20 -4 -20 -8 0 -5 -6 -9 -12 -9 -23 -2 -143
-48 -150 -58 -4 -5 -8 -7 -8 -3 0 9 -59 -14 -181 -71 -36 -17 -71 -31 -77 -31
-7 0 -12 -5 -12 -10 0 -6 -3 -9 -7 -8 -23 7 -336 -182 -417 -252 -48 -41 -139
-134 -176 -180 -33 -41 -120 -175 -120 -185 0 -2 -13 -26 -28 -52 -48 -81
-118 -272 -138 -373 -7 -38 -7 -150 1 -189 47 -244 185 -366 550 -486 39 -13
310 -83 350 -91 29 -5 50 -10 140 -29 44 -9 89 -18 100 -20 11 -1 74 -12 140
-24 66 -12 135 -24 154 -27 34 -4 66 -10 108 -18 12 -3 46 -7 75 -10 29 -4 62
-8 73 -10 11 -2 47 -7 80 -11 33 -4 71 -9 85 -11 35 -5 96 -13 155 -19 28 -3
61 -8 75 -10 14 -3 45 -7 70 -10 25 -3 59 -8 75 -10 17 -3 55 -7 85 -11 63 -6
85 -9 195 -23 44 -6 103 -13 130 -17 73 -9 90 -11 90 -13 0 -1 27 -3 61 -6 33
-2 96 -8 140 -14 89 -12 156 -20 229 -27 28 -2 61 -7 75 -11 14 -3 29 -5 34
-4 8 2 52 -11 216 -61 33 -10 91 -50 90 -63 0 -3 -11 -27 -24 -53 -39 -77
-186 -218 -370 -355 -50 -38 -98 -74 -106 -80 -8 -7 -33 -23 -55 -37 -22 -13
-42 -27 -45 -30 -7 -8 -132 -84 -255 -155 -55 -32 -142 -85 -193 -119 -52 -34
-95 -59 -97 -56 -2 3 -11 -2 -21 -11 -19 -16 -183 -85 -220 -92 -10 -2 -26 -6
-34 -9 -8 -3 -85 -29 -170 -56 -85 -28 -182 -63 -215 -78 -33 -15 -62 -28 -65
-29 -13 -3 -121 -61 -165 -90 -54 -34 -159 -133 -217 -203 -38 -46 -40 -65
-16 -141 13 -41 19 -50 74 -106 79 -81 181 -107 329 -84 33 5 74 11 90 14 17
2 54 9 83 16 30 6 61 12 70 14 9 2 17 4 17 5 0 2 13 5 51 14 45 10 237 77 289
101 31 14 81 36 113 49 82 35 332 164 437 226 103 61 341 220 373 250 12 11
25 20 29 20 5 0 23 12 40 27 17 16 65 55 108 88 42 33 91 73 108 88 18 16 54
48 81 70 97 83 173 154 317 297 225 225 236 241 289 449 21 81 20 185 -1 248
-14 39 -64 122 -96 158 -23 26 -127 105 -138 105 -5 0 -16 6 -24 13 -14 11
-103 53 -216 102 -106 46 -454 134 -635 161 -19 3 -46 7 -60 10 -14 2 -38 6
-55 9 -16 2 -48 7 -70 10 -60 9 -84 12 -155 20 -36 4 -72 9 -81 10 -9 2 -56 6
-105 10 -49 4 -98 9 -109 11 -11 2 -49 6 -85 9 -36 3 -83 7 -105 10 -22 2 -67
7 -100 10 -86 8 -165 16 -205 21 -19 2 -62 7 -95 9 -33 3 -73 7 -90 9 -16 2
-64 7 -105 12 -41 4 -87 8 -102 8 -16 1 -28 5 -28 9 0 5 -3 6 -7 4 -7 -4 -67
2 -168 18 -16 3 -48 7 -70 10 -22 3 -74 12 -115 20 -41 8 -88 17 -105 20 -16
2 -55 12 -85 20 -30 8 -66 18 -80 21 -45 10 -147 63 -185 97 -37 33 -37 34
-33 95 10 129 114 257 313 384 106 68 485 247 485 230 0 -4 4 -2 8 4 4 6 37
22 75 37 37 15 86 35 110 46 23 10 71 31 107 45 36 15 74 31 85 36 52 24 300
99 415 125 8 2 44 11 80 20 35 10 73 19 85 21 11 2 69 17 129 33 61 17 124 33
140 35 32 6 151 30 195 40 129 29 222 84 287 167 48 63 56 241 14 323 -30 58
-82 112 -130 134 -45 20 -129 23 -205 5z"/>
</g>
</svg>
