<svg width="512" height="512" viewBox="0 0 512 512" fill="none" xmlns="http://www.w3.org/2000/svg">
<g clip-path="url(#clip0_1_2)">
<rect width="512" height="512" fill="white"/>
<path d="M0 0H512V512H0V0Z" fill="#F5EBD9"/>
<path d="M480 32V480H32V32H480Z" stroke="#3E2723" stroke-width="16"/>
<path d="M66.6 331C72.8 320.4 78.5 312.8 83.7 308.2C89.1 303.4 95.5 301 102.9 301C106.3 301 109.5 301.6 112.5 302.8C115.5 304 119.7 306.3 125.1 309.7C130.5 313.1 134.2 315.4 136.2 316.6C138.4 317.6 140.6 318.1 142.8 318.1C146.2 318.1 149.1 316.9 151.5 314.5C153.9 311.9 157.5 307.1 162.3 300.1L179.4 313C173.2 323.6 167.4 331.3 162 336.1C156.8 340.7 150.5 343 143.1 343C139.7 343 136.5 342.4 133.5 341.2C130.5 340 126.3 337.7 120.9 334.3C115.5 330.9 111.7 328.7 109.5 327.7C107.5 326.5 105.4 325.9 103.2 325.9C99.8 325.9 96.9 327.2 94.5 329.8C92.1 332.2 88.5 336.9 83.7 343.9L66.6 331Z" fill="#C65D3B"/>
<path d="M227.1 168H279.25L319.15 413H280.65L273.65 364.35V365.05H229.9L222.9 413H187.2L227.1 168ZM269.1 331.8L251.95 210.7H251.25L234.45 331.8H269.1Z" fill="#3E2723"/>
<path d="M383.4 416.5C364.733 416.5 350.617 411.25 341.05 400.75C331.483 390.017 326.7 374.733 326.7 354.9V340.9H363.1V357.7C363.1 373.567 369.75 381.5 383.05 381.5C389.583 381.5 394.483 379.633 397.75 375.9C401.25 371.933 403 365.633 403 357C403 346.733 400.667 337.75 396 330.05C391.333 322.117 382.7 312.667 370.1 301.7C354.233 287.7 343.15 275.1 336.85 263.9C330.55 252.467 327.4 239.633 327.4 225.4C327.4 206.033 332.3 191.1 342.1 180.6C351.9 169.867 366.133 164.5 384.8 164.5C403.233 164.5 417.117 169.867 426.45 180.6C436.017 191.1 440.8 206.267 440.8 226.1V236.25H404.4V223.65C404.4 215.25 402.767 209.183 399.5 205.45C396.233 201.483 391.45 199.5 385.15 199.5C372.317 199.5 365.9 207.317 365.9 222.95C365.9 231.817 368.233 240.1 372.9 247.8C377.8 255.5 386.55 264.833 399.15 275.8C415.25 289.8 426.333 302.517 432.4 313.95C438.467 325.383 441.5 338.8 441.5 354.2C441.5 374.267 436.483 389.667 426.45 400.4C416.65 411.133 402.3 416.5 383.4 416.5Z" fill="#3E2723"/>
</g>
<defs>
<clipPath id="clip0_1_2">
<rect width="512" height="512" fill="white"/>
</clipPath>
</defs>
</svg>
